<?xml version="1.0" standalone="no"?>
<!DOCTYPE svg PUBLIC "-//W3C//DTD SVG 20010904//EN"
 "http://www.w3.org/TR/2001/REC-SVG-20010904/DTD/svg10.dtd">
<svg version="1.0" xmlns="http://www.w3.org/2000/svg"
 width="512.000000pt" height="512.000000pt" viewBox="0 0 512.000000 512.000000"
 preserveAspectRatio="xMidYMid meet">
<metadata>
Created by potrace 1.11, written by Peter Selinger 2001-2013
</metadata>
<g transform="translate(0.000000,512.000000) scale(0.100000,-0.100000)"
fill="#000000" stroke="none">
<path d="M0 2560 l0 -2560 2560 0 2560 0 0 2560 0 2560 -2560 0 -2560 0 0
-2560z m1279 458 c-22 -123 -74 -425 -117 -673 l-78 -450 -52 -3 c-29 -2 -52
1 -52 7 0 5 52 306 115 670 63 363 115 663 115 666 0 3 24 5 54 5 l53 0 -38
-222z m1040 -160 c-36 -211 -70 -403 -74 -428 l-7 -45 54 51 c29 29 145 131
258 228 l205 176 70 0 c68 -1 69 -1 49 -18 -219 -184 -434 -379 -431 -392 2
-8 75 -132 161 -275 l156 -260 -52 -3 c-32 -2 -56 2 -64 10 -7 7 -70 108 -140
223 -69 116 -132 218 -139 227 -10 16 -18 12 -81 -42 l-70 -59 -28 -163 c-37
-217 -28 -198 -87 -198 -27 0 -49 4 -49 9 0 5 52 306 115 670 63 364 115 664
115 666 0 3 24 5 53 5 l53 0 -67 -382z m811 365 c0 -10 -32 -198 -70 -418 -38
-220 -70 -404 -70 -410 0 -5 24 14 53 42 28 28 144 130 257 227 l205 176 70 0
c68 -1 69 -1 49 -18 -145 -121 -434 -377 -434 -385 0 -5 70 -127 157 -270 86
-144 158 -265 160 -269 2 -5 -22 -8 -54 -8 l-58 0 -115 192 c-63 105 -129 213
-145 240 l-31 48 -70 -59 -70 -59 -28 -163 c-37 -218 -28 -199 -87 -199 -27 0
-49 5 -49 10 0 6 52 308 115 671 63 364 115 663 115 665 0 2 23 4 50 4 41 0
50 -3 50 -17z m-1242 -398 c120 -65 182 -217 163 -400 l-6 -60 -327 -3 -328
-2 -6 -26 c-12 -46 4 -153 32 -215 47 -105 118 -149 236 -149 84 0 133 19 215
80 l52 40 28 -24 28 -25 -45 -46 c-25 -25 -74 -60 -110 -78 -56 -26 -79 -32
-160 -35 -115 -5 -183 16 -253 79 -90 78 -133 208 -124 369 10 172 74 319 184
421 89 83 161 110 283 106 72 -3 93 -8 138 -32z m2247 25 c4 -6 4 -29 0 -50
l-7 -40 -71 0 c-55 0 -84 -6 -124 -24 -67 -32 -135 -100 -156 -157 -9 -24 -39
-177 -67 -339 -27 -162 -53 -307 -56 -322 -5 -26 -9 -28 -55 -28 -28 0 -49 5
-49 11 0 6 36 217 80 469 44 252 80 461 80 464 0 3 23 6 51 6 51 0 51 0 46
-27 -3 -16 -8 -45 -12 -66 l-7 -38 58 59 c38 37 75 64 104 75 51 18 176 22
185 7z"/>
<path d="M1612 2744 c-83 -41 -176 -163 -207 -271 l-6 -23 275 0 275 0 6 34
c10 51 -12 140 -48 193 -62 93 -186 121 -295 67z"/>
</g>
</svg>
