<?xml version="1.0" standalone="no"?>
<!DOCTYPE svg PUBLIC "-//W3C//DTD SVG 20010904//EN"
 "http://www.w3.org/TR/2001/REC-SVG-20010904/DTD/svg10.dtd">
<svg version="1.0" xmlns="http://www.w3.org/2000/svg"
 width="512.000000pt" height="512.000000pt" viewBox="0 0 512.000000 512.000000"
 preserveAspectRatio="xMidYMid meet">
<metadata>
Created by potrace 1.11, written by Peter Selinger 2001-2013
</metadata>
<g transform="translate(0.000000,512.000000) scale(0.100000,-0.100000)"
fill="#000000" stroke="none">
<path d="M0 2560 l0 -2560 2560 0 2560 0 0 2560 0 2560 -2560 0 -2560 0 0
-2560z m2390 1600 c41 -6 96 -17 123 -26 43 -14 51 -14 95 0 76 25 193 37 275
26 157 -20 282 -79 395 -186 55 -53 74 -64 131 -80 237 -64 421 -248 485 -485
16 -57 27 -76 80 -131 73 -77 129 -169 157 -258 40 -126 41 -298 3 -412 -14
-44 -14 -52 0 -96 38 -114 37 -286 -3 -412 -28 -90 -84 -181 -159 -259 -56
-59 -65 -74 -83 -141 -60 -223 -246 -409 -469 -469 -66 -18 -82 -28 -138 -81
-74 -70 -171 -130 -262 -161 -98 -33 -270 -38 -378 -11 l-82 21 -82 -21 c-108
-27 -280 -22 -378 11 -91 31 -188 91 -262 161 -55 52 -72 63 -136 80 -230 63
-410 243 -471 470 -18 67 -28 82 -83 141 -127 134 -179 258 -186 440 -4 94 -1
130 16 197 l21 82 -21 82 c-17 67 -20 103 -16 197 7 181 59 305 184 438 52 56
65 76 80 132 64 237 248 421 485 485 57 16 76 27 131 80 125 118 277 183 458
194 8 1 49 -3 90 -8z"/>
<path d="M2159 3991 c-66 -21 -160 -71 -154 -81 3 -4 22 -11 42 -15 21 -3 69
-20 107 -36 39 -16 70 -28 71 -26 14 28 50 74 93 120 l55 57 -79 -1 c-47 0
-102 -7 -135 -18z"/>
<path d="M2796 3958 c42 -44 63 -71 99 -126 1 -1 33 11 71 27 38 16 86 32 107
36 20 4 39 11 42 15 7 11 -100 65 -164 84 -30 9 -89 16 -130 16 l-75 0 50 -52z"/>
<path d="M2500 3912 c-57 -39 -150 -146 -150 -171 0 -8 18 -33 39 -56 22 -22
56 -67 76 -100 37 -62 85 -198 85 -241 0 -13 5 -24 10 -24 6 0 10 11 10 24 0
43 48 179 85 241 20 33 54 78 76 100 21 23 39 47 39 54 0 17 -59 97 -97 132
-31 30 -102 79 -113 79 -3 0 -31 -17 -60 -38z"/>
<path d="M1850 3738 c-26 -43 -56 -138 -64 -210 l-7 -57 42 -11 c130 -35 268
-133 366 -259 7 -9 4 5 -8 32 -53 125 -64 311 -23 439 9 30 -113 78 -233 92
-52 7 -53 6 -73 -26z"/>
<path d="M3160 3759 c-60 -8 -156 -41 -182 -62 -15 -11 -15 -18 -1 -82 26
-119 5 -303 -46 -405 -8 -17 -3 -13 15 10 81 102 196 185 314 227 l81 28 -7
55 c-8 70 -38 165 -64 208 -21 34 -23 34 -110 21z"/>
<path d="M1620 3697 c-56 -28 -169 -141 -197 -197 -12 -24 -20 -46 -19 -48 2
-2 31 4 64 12 33 9 73 16 88 16 62 0 72 8 79 63 3 29 13 79 21 111 8 32 13 60
11 62 -1 2 -23 -7 -47 -19z"/>
<path d="M3454 3698 c10 -36 24 -109 31 -159 l6 -46 92 -16 c51 -9 102 -19
114 -22 32 -10 22 17 -37 97 -44 61 -144 144 -194 162 -15 5 -17 3 -12 -16z"/>
<path d="M2284 3545 c-20 -79 22 -254 82 -344 32 -49 44 -41 44 30 0 102 -36
220 -94 305 l-25 37 -7 -28z"/>
<path d="M2792 3517 c-18 -29 -42 -80 -53 -112 -23 -67 -38 -228 -21 -239 13
-8 62 72 91 149 24 65 39 212 24 238 -7 14 -14 8 -41 -36z"/>
<path d="M1541 3329 c-57 -10 -164 -53 -181 -74 -21 -26 23 -225 63 -278 10
-14 18 -15 47 -7 111 33 301 19 417 -31 l48 -20 -40 33 c-103 84 -180 191
-223 310 -30 87 -25 84 -131 67z"/>
<path d="M3461 3298 c-35 -119 -119 -247 -214 -327 -29 -25 -43 -41 -32 -36
123 48 264 66 378 46 37 -6 73 -14 81 -17 27 -10 77 118 90 233 7 52 6 53 -26
73 -43 26 -138 56 -209 64 l-56 7 -12 -43z"/>
<path d="M1824 3283 c19 -50 77 -131 129 -179 58 -54 153 -111 165 -99 4 3 -5
27 -18 53 -33 64 -153 183 -217 216 -62 31 -67 32 -59 9z"/>
<path d="M3224 3264 c-80 -48 -156 -125 -194 -196 -18 -33 -30 -62 -27 -64 11
-11 109 49 164 100 68 64 154 196 126 196 -5 0 -36 -16 -69 -36z"/>
<path d="M2543 3103 c-9 -47 -8 -61 3 -73 12 -12 16 -12 28 0 11 12 12 26 3
73 -6 31 -14 57 -17 57 -3 0 -11 -26 -17 -57z"/>
<path d="M1167 3052 c-45 -87 -74 -216 -62 -274 l7 -30 52 49 c42 41 69 62
124 98 1 1 -11 33 -27 71 -16 38 -32 86 -36 107 -4 20 -11 39 -15 42 -4 3 -23
-26 -43 -63z"/>
<path d="M3906 3110 c-3 -8 -10 -35 -16 -59 -7 -25 -23 -67 -36 -95 -29 -61
-29 -60 0 -74 13 -6 54 -39 91 -74 l68 -63 -5 95 c-5 99 -25 168 -72 245 -17
28 -26 35 -30 25z"/>
<path d="M2273 3027 c18 -56 25 -67 42 -65 33 5 27 30 -20 83 l-44 50 22 -68z"/>
<path d="M2821 3040 c-43 -51 -48 -80 -14 -80 13 0 23 18 39 65 11 36 20 65
19 65 -1 0 -21 -23 -44 -50z"/>
<path d="M2011 2876 c59 -52 124 -96 135 -92 19 7 18 46 -1 46 -9 0 -43 11
-77 25 -34 14 -59 23 -57 21z"/>
<path d="M3022 2846 c-51 -17 -62 -25 -60 -41 5 -33 30 -27 83 20 27 25 47 45
45 44 -3 -1 -33 -11 -68 -23z"/>
<path d="M2475 2830 c-47 -14 -72 -30 -115 -72 -50 -48 -57 -61 -73 -128 -18
-73 -18 -77 0 -145 16 -60 26 -78 73 -125 50 -50 62 -57 130 -73 72 -18 77
-18 145 0 61 16 77 25 125 74 49 50 57 65 74 130 17 72 17 76 -2 144 -17 59
-28 78 -73 124 -45 45 -65 56 -121 72 -79 22 -85 22 -163 -1z"/>
<path d="M1557 2833 c-8 -13 86 -68 157 -93 68 -24 205 -37 231 -23 16 10 13
14 -26 39 -76 48 -165 76 -265 81 -53 3 -94 2 -97 -4z"/>
<path d="M3385 2830 c-56 -12 -138 -45 -186 -77 -35 -23 -38 -28 -23 -36 25
-14 164 -1 230 23 78 27 167 82 151 92 -15 10 -119 8 -172 -2z"/>
<path d="M1315 2732 c-54 -41 -145 -148 -145 -170 0 -34 99 -146 174 -195 l39
-26 53 48 c88 80 213 141 327 160 57 9 55 10 -48 35 -96 22 -204 77 -268 136
-30 28 -61 50 -68 50 -8 0 -36 -17 -64 -38z"/>
<path d="M3674 2722 c-62 -58 -175 -116 -269 -138 -103 -25 -105 -26 -47 -36
112 -17 266 -94 336 -167 17 -17 37 -31 46 -31 27 0 133 93 174 153 l40 57
-40 57 c-41 60 -147 153 -174 153 -8 -1 -38 -22 -66 -48z"/>
<path d="M2013 2576 c-69 -15 -73 -22 -16 -29 27 -4 58 -9 69 -13 23 -6 38 15
28 41 -7 17 -8 17 -81 1z"/>
<path d="M3030 2575 c-11 -13 -11 -18 1 -30 11 -12 22 -13 49 -5 19 6 48 10
63 10 42 0 24 16 -26 23 -23 3 -50 9 -58 12 -9 3 -22 -1 -29 -10z"/>
<path d="M1755 2394 c-65 -16 -199 -83 -196 -99 3 -20 172 -11 241 13 76 26
163 78 155 92 -9 14 -130 11 -200 -6z"/>
<path d="M3166 2401 c-8 -12 75 -62 147 -90 64 -23 188 -38 232 -27 l27 7 -24
18 c-41 33 -126 71 -190 86 -70 16 -184 20 -192 6z"/>
<path d="M1105 2341 c-6 -30 -3 -65 17 -156 11 -51 74 -185 88 -185 4 0 10 17
14 38 3 20 18 64 32 97 38 90 38 88 2 109 -18 11 -58 44 -90 74 l-56 53 -7
-30z"/>
<path d="M3960 2325 c-24 -25 -63 -58 -85 -72 -22 -15 -42 -28 -44 -30 -2 -1
8 -30 23 -62 15 -33 32 -83 39 -111 6 -27 15 -50 18 -50 11 0 67 114 84 172
10 35 15 83 13 128 l-3 71 -45 -46z"/>
<path d="M2100 2317 c-19 -18 -48 -42 -65 -55 l-30 -22 45 19 c25 10 60 22 78
26 34 7 43 33 19 53 -9 8 -21 2 -47 -21z"/>
<path d="M2971 2337 c-25 -25 -11 -42 54 -63 36 -12 65 -21 65 -20 0 1 -24 23
-54 48 -40 35 -56 44 -65 35z"/>
<path d="M1882 2180 c-56 -25 -178 -50 -244 -50 -52 0 -151 13 -189 25 -16 5
-24 -4 -45 -50 -29 -63 -60 -205 -51 -230 10 -24 123 -73 197 -84 98 -16 98
-16 111 32 33 124 124 255 249 356 30 25 27 25 -28 1z"/>
<path d="M3205 2185 c43 -34 129 -122 157 -163 39 -57 83 -148 98 -200 l11
-43 57 7 c127 15 242 66 242 106 -1 45 -30 161 -54 215 -20 42 -29 53 -43 49
-129 -41 -315 -31 -440 23 -31 14 -41 16 -28 6z"/>
<path d="M2273 2093 l-22 -68 48 55 c36 40 46 58 39 68 -24 28 -43 12 -65 -55z"/>
<path d="M2782 2148 c-9 -9 -4 -20 21 -47 18 -20 42 -49 54 -66 22 -29 21 -28
-2 30 -14 33 -25 68 -25 78 0 19 -30 23 -48 5z"/>
<path d="M2069 2103 c-69 -34 -188 -152 -223 -221 -15 -30 -25 -56 -23 -59 3
-2 27 7 55 21 59 30 152 113 193 173 27 39 64 113 56 113 -2 0 -28 -12 -58
-27z"/>
<path d="M3000 2115 c0 -26 65 -122 119 -175 61 -60 165 -129 177 -117 11 11
-47 107 -98 162 -69 76 -198 160 -198 130z"/>
<path d="M2542 2091 c-11 -6 -11 -16 -3 -47 6 -22 11 -52 11 -68 0 -45 13 -22
27 47 10 48 10 63 0 69 -15 10 -19 10 -35 -1z"/>
<path d="M2363 1918 c-44 -70 -75 -166 -80 -255 -3 -45 -3 -89 1 -98 5 -15 8
-15 25 6 33 42 71 127 86 191 17 71 20 184 5 193 -5 3 -22 -14 -37 -37z"/>
<path d="M2717 1953 c-12 -12 -7 -126 8 -191 21 -90 91 -222 109 -205 12 12 6
139 -9 198 -16 62 -69 178 -90 195 -6 5 -15 7 -18 3z"/>
<path d="M2105 1836 c-93 -94 -179 -148 -282 -175 -48 -13 -48 -13 -32 -111
11 -74 60 -187 84 -197 25 -9 167 22 230 51 46 21 55 29 50 45 -12 38 -25 137
-25 189 0 66 25 188 50 247 11 25 18 44 17 44 -1 -1 -42 -42 -92 -93z"/>
<path d="M2939 1888 c54 -127 65 -316 26 -439 -5 -16 4 -24 50 -45 63 -29 205
-60 230 -51 34 14 95 189 95 277 0 10 -27 25 -78 42 -119 43 -226 120 -310
223 l-33 40 20 -47z"/>
<path d="M2550 1779 c0 -42 -45 -173 -81 -236 -17 -29 -52 -77 -79 -106 l-49
-54 34 -50 c34 -51 117 -130 161 -154 20 -10 28 -10 48 0 44 24 127 103 161
154 l34 50 -49 54 c-27 29 -62 77 -79 106 -36 63 -81 194 -81 236 0 17 -4 31
-10 31 -5 0 -10 -14 -10 -31z"/>
<path d="M1403 1656 c16 -40 82 -129 125 -167 52 -45 130 -94 138 -86 3 2 -2
32 -10 65 -9 33 -16 73 -16 88 0 58 -10 73 -49 79 -55 8 -143 24 -170 32 -20
5 -23 3 -18 -11z"/>
<path d="M3640 1654 c-30 -7 -76 -16 -102 -19 -45 -6 -48 -8 -53 -43 -3 -20
-12 -70 -20 -111 -8 -41 -13 -76 -11 -79 7 -7 92 47 139 88 41 37 108 126 123
164 7 19 1 19 -76 0z"/>
<path d="M2153 1264 c-28 -14 -74 -30 -102 -37 -28 -6 -51 -15 -51 -18 0 -13
136 -77 185 -87 91 -20 126 -23 156 -17 l30 7 -53 56 c-30 32 -63 72 -73 90
-23 38 -24 38 -92 6z"/>
<path d="M2876 1258 c-11 -18 -44 -58 -74 -90 l-53 -56 30 -7 c30 -6 65 -3
156 17 51 11 185 74 185 88 0 4 -17 10 -37 14 -21 3 -65 18 -98 32 -90 38 -88
38 -109 2z"/>
</g>
</svg>
