<svg xmlns="http://www.w3.org/2000/svg" viewBox="0 0 83.73 36.198" height="136.813" width="316.458"><g font-style="italic" font-weight="300" font-family="Roboto" letter-spacing="-3.051" word-spacing="0" fill="#00e676"><path d="M2.791 35.731H0L6.211 0h2.792zM17.234 36.197Q14.209 36.15 12 34.522q-2.21-1.652-3.257-4.467-1.024-2.838-.721-6.118l.07-.79q.325-3.49 2.07-6.63 1.744-3.164 4.42-4.816 2.675-1.675 5.722-1.605 2.815.046 4.746 1.535 1.954 1.49 2.838 4.141.884 2.652.558 5.862l-.186 1.698H10.836l-.07.559q-.348 2.535.373 4.862.721 2.303 2.35 3.675 1.651 1.35 3.954 1.396 2.233.07 4.024-.86 1.792-.931 3.304-2.49l1.628 1.326q-1.698 2.187-4.048 3.326-2.326 1.117-5.117 1.07zm2.93-23.728q-3.023-.117-5.42 2.14-2.396 2.256-3.605 6.35l14.609.024.07-.349q.418-3.303-1.164-5.676-1.581-2.396-4.49-2.49zM36.445 23.1l-3.722 3.14-1.652 9.491h-2.768L34.513 0h2.769l-3.955 22.658 2.885-2.652 10.957-9.445h3.698L38.492 21.285l8.677 14.446h-3.071zM56.284 23.1l-3.722 3.14-1.652 9.491h-2.768L54.352 0h2.77l-3.956 22.658 2.885-2.652 10.957-9.445h3.698L58.331 21.285l8.677 14.446h-3.071zM83.357 12.91q-.907-.185-1.837-.209-2.652 0-4.862 1.629-2.21 1.605-2.955 4.094l-2.977 17.307H67.98l4.373-25.17h2.722l-.838 4.001q1.373-2.233 3.304-3.396 1.954-1.163 4.28-1.117.814 0 1.908.326z" style="line-height:1.25;-inkscape-font-specification:'Roboto Light Italic'"/></g></svg>